#!OML:ASF H:\LiuWeirdWalks\Patient Classification 1\Patient 1\Session 1\male.ASF
:FULLY-SPECIFIED
:DEGREES
564
root 2.17827 18.073 35.2666 0.859138 0.591484 3.2542
lowerback 4.50884 -0.485363 -6.4991
upperback 1.00463 -0.901672 2.94053
thorax -1.34122 -0.431559 6.78141
lowerneck -19.9652 0.305451 2.86685
upperneck 7.97234 0.178642 -3.95594
head 5.62824 -0.13943 -1.70695
rclavicle -1.59028e-015 1.35174e-014
rhumerus -33.4281 -3.65659 -76.2779
rradius 41.2082
rwrist -8.55631
rhand -12.2526 1.20353
rfingers 7.12502
rthumb 13.8135 -28.3178
lclavicle -1.59028e-015 1.35174e-014
lhumerus -29.505 -10.3808 86.1589
lradius 41.018
lwrist -7.34831
lhand -16.9118 -8.58447
lfingers 7.12502
lthumb 9.32043 21.1895
rfemur -17.4832 1.2557 18.6408
rtibia 35.2136
rfoot -8.33732 -15.4285
rtoes -2.12081
lfemur -16.2007 4.32646 -19.2823
ltibia 56.7912
lfoot -10.6905 5.17197
ltoes -16.5304
565
root 2.18833 18.0699 35.3095 0.975617 0.509861 3.36081
lowerback 4.36381 -0.437359 -6.45482
upperback 1.04845 -0.827926 2.84586
thorax -1.22879 -0.400486 6.64845
lowerneck -20.2848 0.34266 2.92414
upperneck 8.02484 0.223515 -4.07795
head 5.6973 -0.128939 -1.7527
rclavicle 2.72335e-014 -2.3059e-014
rhumerus -32.9888 -2.91812 -76.5674
rradius 42.427
rwrist -8.74412
rhand -12.1987 1.37081
rfingers 7.12502
rthumb 13.8656 -28.147
lclavicle 2.72335e-014 -2.3059e-014
lhumerus -30.0285 -9.39379 86.6005
lradius 40.351
lwrist -7.70438
lhand -16.981 -8.43744
lfingers 7.12502
lthumb 9.25372 21.3395
rfemur -17.5361 1.47381 18.4958
rtibia 35.3752
rfoot -8.53508 -15.6123
rtoes -2.10551
lfemur -16.5179 4.24632 -19.5175
ltibia 56.2988
lfoot -11.1335 5.71363
ltoes -16.7443
566
root 2.19897 18.0653 35.3519 1.11953 0.450686 3.47738
lowerback 4.17044 -0.398478 -6.42437
upperback 1.08567 -0.764179 2.75007
thorax -1.094 -0.374935 6.52258
lowerneck -20.5717 0.374378 2.9697
upperneck 8.05674 0.262826 -4.18924
head 5.75445 -0.120486 -1.79345
rclavicle -2.21645e-014 7.95139e-016
rhumerus -32.5515 -2.22124 -76.7978
rradius 43.5993
rwrist -8.99557
rhand -12.2292 1.55565
rfingers 7.12502
rthumb 13.8361 -27.9642
lclavicle -2.21645e-014 7.95139e-016
lhumerus -30.4961 -8.2641 86.9627
lradius 39.6151
lwrist -7.7844
lhand -16.9854 -8.2349
lfingers 7.12502
lthumb 9.24938 21.5422
rfemur -17.633 1.66657 18.3315
rtibia 35.5672
rfoot -8.75537 -15.7842
rtoes -2.08678
lfemur -16.8166 4.12753 -19.7809
ltibia 55.6793
lfoot -11.5976 6.27544
ltoes -16.9215
567
root 2.21042 18.0589 35.3945 1.22416 0.409344 3.5835
lowerback 3.98878 -0.363507 -6.38368
upperback 1.13315 -0.705663 2.65588
thorax -0.95417 -0.352378 6.3935
lowerneck -20.805 0.401064 3.01431
upperneck 8.05876 0.295087 -4.29378
head 5.79335 -0.114435 -1.83217
rclavicle 1.19271e-015 -7.95139e-016
rhumerus -32.1137 -1.58384 -76.9705
rradius 44.7127
rwrist -9.26021
rhand -12.3045 1.72203
rfingers 7.12502
rthumb 13.7636 -27.8027
lclavicle 1.19271e-015 -7.95139e-016
lhumerus -30.9133 -7.00595 87.2404
lradius 38.8027
lwrist -7.62653
lhand -16.9147 -7.96752
lfingers 7.12502
lthumb 9.31764 21.8066
rfemur -17.6854 1.8322 18.1731
rtibia 35.7674
rfoot -8.99815 -15.9373
rtoes -2.04849
lfemur -17.0123 3.97454 -20.0428
ltibia 54.9276
lfoot -12.0951 6.85081
ltoes -17.1421
568
root 2.22202 18.0509 35.4373 1.32899 0.394445 3.67584
lowerback 3.78356 -0.337771 -6.34786
upperback 1.1758 -0.658138 2.57446
thorax -0.803957 -0.335437 6.28147
lowerneck -20.9963 0.419252 3.03911
upperneck 8.05331 0.320358 -4.38557
head 5.82294 -0.111024 -1.86411
rclavicle 7.35503e-015 -1.11319e-014
rhumerus -31.6868 -0.990446 -77.0825
rradius 45.7746
rwrist -9.57479
rhand -12.4546 1.90507
rfingers 7.12502
rthumb 13.6189 -27.6294
lclavicle 7.35503e-015 -1.11319e-014
lhumerus -31.2825 -5.64191 87.4482
lradius 37.9027
lwrist -7.22831
lhand -16.8062 -7.64699
lfingers 7.12502
lthumb 9.42233 22.1224
rfemur -17.7338 1.95892 18.0263
rtibia 35.9689
rfoot -9.25262 -16.0734
rtoes -2.02528
lfemur -17.1502 3.78813 -20.2984
ltibia 54.0451
lfoot -12.6283 7.42912
ltoes -17.3984
